<svg width="437" height="154" viewBox="0 0 437 154" fill="none" xmlns="http://www.w3.org/2000/svg">
<path d="M36.55 45.24C36.55 45.08 36.6 44.95 36.7 44.85C36.82 44.75 36.96 44.7 37.12 44.7H37.57C37.77 44.7 37.94 44.77 38.08 44.91L50.32 57.96H50.38V45.57C50.38 45.41 50.43 45.28 50.53 45.18C50.65 45.06 50.79 45 50.95 45H53.71C53.87 45 54 45.06 54.1 45.18C54.22 45.28 54.28 45.41 54.28 45.57V65.76C54.28 65.92 54.22 66.05 54.1 66.15C54 66.25 53.87 66.3 53.71 66.3H53.29C53.09 66.3 52.92 66.23 52.78 66.09L40.48 52.53H40.42V65.43C40.42 65.59 40.36 65.73 40.24 65.85C40.14 65.95 40.01 66 39.85 66H37.12C36.96 66 36.82 65.95 36.7 65.85C36.6 65.73 36.55 65.59 36.55 65.43V45.24ZM57.3749 59.07C57.3749 58.09 57.5449 57.17 57.8849 56.31C58.2249 55.43 58.7049 54.66 59.3249 54C59.9449 53.34 60.6849 52.82 61.5449 52.44C62.4049 52.04 63.3449 51.84 64.3649 51.84C65.2649 51.84 66.0949 52 66.8549 52.32C67.6349 52.64 68.3049 53.09 68.8649 53.67C69.4449 54.23 69.8949 54.9 70.2149 55.68C70.5549 56.46 70.7249 57.32 70.7249 58.26C70.7249 58.36 70.7149 58.51 70.6949 58.71C70.6949 58.91 70.6849 59.06 70.6649 59.16C70.6449 59.34 70.5649 59.49 70.4249 59.61C70.3049 59.73 70.1649 59.79 70.0049 59.79H61.1249C61.1249 60.21 61.2149 60.62 61.3949 61.02C61.5749 61.4 61.8149 61.74 62.1149 62.04C62.4149 62.34 62.7749 62.58 63.1949 62.76C63.6149 62.92 64.0749 63 64.5749 63C65.2749 63 65.8649 62.9 66.3449 62.7C66.8249 62.48 67.2249 62.24 67.5449 61.98C67.7049 61.84 67.8649 61.77 68.0249 61.77C68.2049 61.75 68.3449 61.82 68.4449 61.98L69.6149 63.54C69.7349 63.68 69.7949 63.83 69.7949 63.99C69.7949 64.13 69.7149 64.28 69.5549 64.44C68.9549 64.96 68.2249 65.41 67.3649 65.79C66.5249 66.15 65.5349 66.33 64.3949 66.33C63.3549 66.33 62.4049 66.14 61.5449 65.76C60.6849 65.38 59.9449 64.86 59.3249 64.2C58.7049 63.54 58.2249 62.77 57.8849 61.89C57.5449 61.01 57.3749 60.07 57.3749 59.07ZM66.9449 57.33C66.9049 56.65 66.6349 56.08 66.1349 55.62C65.6549 55.16 65.0349 54.93 64.2749 54.93C63.4349 54.93 62.7549 55.16 62.2349 55.62C61.7349 56.06 61.4349 56.63 61.3349 57.33H66.9449ZM60.3449 49.86C60.2249 49.7 60.1949 49.54 60.2549 49.38C60.3349 49.22 60.4349 49.11 60.5549 49.05L63.6449 46.65C63.9049 46.43 64.1749 46.42 64.4549 46.62L67.5449 49.05C67.6649 49.11 67.7549 49.22 67.8149 49.38C67.8949 49.54 67.8749 49.7 67.7549 49.86L67.1249 50.73C67.0049 50.87 66.8749 50.96 66.7349 51C66.6149 51.02 66.4549 50.98 66.2549 50.88L64.0649 49.47L61.8449 50.88C61.6449 50.98 61.4749 51.02 61.3349 51C61.2149 50.96 61.0949 50.87 60.9749 50.73L60.3449 49.86ZM61.6349 44.31C61.4749 44.23 61.3649 44.11 61.3049 43.95C61.2449 43.77 61.2649 43.57 61.3649 43.35L62.0549 42.12C62.1549 41.92 62.2949 41.82 62.4749 41.82C62.6749 41.8 62.8549 41.84 63.0149 41.94L66.9149 44.28C67.0549 44.32 67.1549 44.42 67.2149 44.58C67.2749 44.74 67.2649 44.9 67.1849 45.06L66.7349 45.9C66.5749 46.26 66.2749 46.35 65.8349 46.17L61.6349 44.31ZM73.5372 52.8C73.5372 52.6 73.6072 52.44 73.7472 52.32C73.8872 52.2 74.0372 52.14 74.1972 52.14H75.3372C75.6172 52.14 75.8072 52.28 75.9072 52.56L76.4172 53.85C76.5372 53.71 76.7072 53.53 76.9272 53.31C77.1672 53.07 77.4672 52.85 77.8272 52.65C78.1872 52.43 78.6172 52.24 79.1172 52.08C79.6372 51.92 80.2272 51.84 80.8872 51.84C81.9872 51.84 82.8972 52.01 83.6172 52.35C84.3372 52.69 84.9072 53.16 85.3272 53.76C85.7472 54.34 86.0372 55.01 86.1972 55.77C86.3572 56.53 86.4372 57.33 86.4372 58.17V65.34C86.4372 65.52 86.3672 65.68 86.2272 65.82C86.0872 65.94 85.9372 66 85.7772 66H83.3472C83.1672 66 83.0072 65.94 82.8672 65.82C82.7472 65.68 82.6872 65.52 82.6872 65.34V58.17C82.6872 57.27 82.4972 56.56 82.1172 56.04C81.7372 55.52 81.1272 55.26 80.2872 55.26C79.8272 55.26 79.4272 55.33 79.0872 55.47C78.7672 55.61 78.4872 55.79 78.2472 56.01C78.0072 56.21 77.8072 56.44 77.6472 56.7C77.4872 56.94 77.3672 57.18 77.2872 57.42V65.34C77.2872 65.6 77.2272 65.78 77.1072 65.88C76.9872 65.96 76.7572 66 76.4172 66H74.1972C74.0372 66 73.8872 65.94 73.7472 65.82C73.6072 65.68 73.5372 65.52 73.5372 65.34V52.8ZM98.2563 55.5H96.9063C96.7263 55.5 96.5763 55.43 96.4563 55.29C96.3363 55.15 96.2763 55 96.2763 54.84V52.8C96.2763 52.6 96.3363 52.44 96.4563 52.32C96.5763 52.2 96.7263 52.14 96.9063 52.14H98.2563V48.3C98.2563 48.12 98.3263 47.97 98.4663 47.85C98.6063 47.71 98.7563 47.64 98.9163 47.64H101.376C101.556 47.64 101.706 47.71 101.826 47.85C101.946 47.97 102.006 48.12 102.006 48.3V52.14H105.246C105.426 52.14 105.576 52.2 105.696 52.32C105.836 52.44 105.906 52.6 105.906 52.8V54.84C105.906 55 105.836 55.15 105.696 55.29C105.576 55.43 105.426 55.5 105.246 55.5H102.006V61.74C102.006 62.2 102.106 62.51 102.306 62.67C102.526 62.81 102.806 62.88 103.146 62.88C103.286 62.88 103.456 62.86 103.656 62.82C103.876 62.78 104.086 62.74 104.286 62.7C104.486 62.66 104.666 62.62 104.826 62.58C105.006 62.52 105.146 62.47 105.246 62.43C105.446 62.35 105.616 62.35 105.756 62.43C105.896 62.51 105.986 62.63 106.026 62.79L106.416 64.62C106.496 64.98 106.366 65.25 106.026 65.43C105.906 65.49 105.696 65.58 105.396 65.7C105.116 65.8 104.796 65.9 104.436 66C104.076 66.08 103.686 66.15 103.266 66.21C102.866 66.29 102.486 66.33 102.126 66.33C101.346 66.33 100.706 66.21 100.206 65.97C99.7063 65.73 99.3063 65.41 99.0063 65.01C98.7263 64.59 98.5263 64.11 98.4063 63.57C98.3063 63.03 98.2563 62.46 98.2563 61.86V55.5ZM108.056 61.59C108.056 60.97 108.176 60.4 108.416 59.88C108.676 59.34 109.036 58.88 109.496 58.5C109.976 58.1 110.556 57.79 111.236 57.57C111.916 57.35 112.696 57.24 113.576 57.24C113.916 57.24 114.246 57.27 114.566 57.33C114.906 57.37 115.196 57.41 115.436 57.45C115.716 57.51 115.986 57.57 116.246 57.63C116.286 56.73 116.156 56.07 115.856 55.65C115.576 55.23 115.066 55.02 114.326 55.02C114.006 55.02 113.656 55.04 113.276 55.08C112.916 55.1 112.556 55.14 112.196 55.2C111.836 55.24 111.496 55.29 111.176 55.35C110.876 55.41 110.626 55.47 110.426 55.53C110.206 55.61 110.026 55.59 109.886 55.47C109.766 55.33 109.686 55.15 109.646 54.93L109.346 53.37C109.286 53.11 109.306 52.92 109.406 52.8C109.506 52.66 109.636 52.57 109.796 52.53C109.876 52.51 110.056 52.46 110.336 52.38C110.636 52.3 110.996 52.22 111.416 52.14C111.856 52.06 112.346 51.99 112.886 51.93C113.426 51.87 113.976 51.84 114.536 51.84C115.616 51.84 116.496 51.98 117.176 52.26C117.856 52.52 118.386 52.91 118.766 53.43C119.146 53.95 119.406 54.59 119.546 55.35C119.686 56.09 119.756 56.93 119.756 57.87V65.34C119.756 65.52 119.686 65.68 119.546 65.82C119.426 65.94 119.276 66 119.096 66H118.076C117.956 66 117.846 65.97 117.746 65.91C117.666 65.85 117.576 65.72 117.476 65.52L117.086 64.59C116.686 64.99 116.126 65.38 115.406 65.76C114.706 66.14 113.816 66.33 112.736 66.33C111.356 66.33 110.226 65.92 109.346 65.1C108.486 64.26 108.056 63.09 108.056 61.59ZM111.656 61.59C111.656 62.17 111.826 62.64 112.166 63C112.526 63.36 113.026 63.54 113.666 63.54C113.966 63.54 114.256 63.49 114.536 63.39C114.816 63.27 115.066 63.14 115.286 63C115.526 62.84 115.716 62.68 115.856 62.52C116.016 62.34 116.116 62.19 116.156 62.07V60.03C115.976 59.97 115.776 59.9 115.556 59.82C115.376 59.78 115.156 59.74 114.896 59.7C114.656 59.64 114.396 59.61 114.116 59.61C113.316 59.61 112.706 59.79 112.286 60.15C111.866 60.49 111.656 60.97 111.656 61.59ZM113.096 51.12C112.836 51.12 112.706 50.97 112.706 50.67C112.706 50.09 112.996 49.58 113.576 49.14C113.756 49 113.936 48.84 114.116 48.66C114.296 48.48 114.306 48.27 114.146 48.03C113.986 47.85 113.806 47.76 113.606 47.76C113.346 47.78 113.096 47.87 112.856 48.03C112.556 48.29 112.326 48.34 112.166 48.18L111.446 47.43C111.226 47.25 111.216 47.06 111.416 46.86C111.856 46.48 112.336 46.19 112.856 45.99C113.256 45.85 113.626 45.78 113.966 45.78C114.646 45.78 115.246 46 115.766 46.44C116.286 46.88 116.546 47.42 116.546 48.06C116.546 48.62 116.236 49.17 115.616 49.71C115.336 49.95 115.066 50.26 114.806 50.64C114.586 50.96 114.446 51.12 114.386 51.12H113.096ZM123.488 52.8C123.488 52.6 123.558 52.44 123.698 52.32C123.838 52.2 123.988 52.14 124.148 52.14H125.288C125.568 52.14 125.758 52.28 125.858 52.56L126.368 53.85C126.488 53.71 126.658 53.53 126.878 53.31C127.118 53.07 127.418 52.85 127.778 52.65C128.138 52.43 128.568 52.24 129.068 52.08C129.588 51.92 130.178 51.84 130.838 51.84C131.938 51.84 132.848 52.01 133.568 52.35C134.288 52.69 134.858 53.16 135.278 53.76C135.698 54.34 135.988 55.01 136.148 55.77C136.308 56.53 136.388 57.33 136.388 58.17V65.34C136.388 65.52 136.318 65.68 136.178 65.82C136.038 65.94 135.888 66 135.728 66H133.298C133.118 66 132.958 65.94 132.818 65.82C132.698 65.68 132.638 65.52 132.638 65.34V58.17C132.638 57.27 132.448 56.56 132.068 56.04C131.688 55.52 131.078 55.26 130.238 55.26C129.778 55.26 129.378 55.33 129.038 55.47C128.718 55.61 128.438 55.79 128.198 56.01C127.958 56.21 127.758 56.44 127.598 56.7C127.438 56.94 127.318 57.18 127.238 57.42V65.34C127.238 65.6 127.178 65.78 127.058 65.88C126.938 65.96 126.708 66 126.368 66H124.148C123.988 66 123.838 65.94 123.698 65.82C123.558 65.68 123.488 65.52 123.488 65.34V52.8ZM149.43 57.18C149.35 56.98 149.23 56.77 149.07 56.55C148.91 56.33 148.7 56.13 148.44 55.95C148.2 55.75 147.9 55.59 147.54 55.47C147.2 55.33 146.81 55.26 146.37 55.26C145.83 55.26 145.35 55.37 144.93 55.59C144.53 55.81 144.19 56.1 143.91 56.46C143.65 56.82 143.45 57.23 143.31 57.69C143.17 58.15 143.1 58.62 143.1 59.1C143.1 59.58 143.17 60.05 143.31 60.51C143.47 60.97 143.69 61.38 143.97 61.74C144.25 62.1 144.6 62.39 145.02 62.61C145.46 62.81 145.97 62.91 146.55 62.91C146.99 62.91 147.38 62.87 147.72 62.79C148.08 62.71 148.39 62.62 148.65 62.52C148.95 62.42 149.21 62.29 149.43 62.13V57.18ZM153.18 66.15C153.18 67.27 153 68.25 152.64 69.09C152.28 69.93 151.78 70.63 151.14 71.19C150.52 71.75 149.79 72.17 148.95 72.45C148.11 72.73 147.22 72.87 146.28 72.87C145.7 72.87 145.15 72.81 144.63 72.69C144.11 72.59 143.63 72.45 143.19 72.27C142.75 72.11 142.36 71.94 142.02 71.76C141.7 71.58 141.46 71.43 141.3 71.31C141.2 71.21 141.13 71.08 141.09 70.92C141.05 70.78 141.07 70.65 141.15 70.53L142.05 68.58C142.11 68.44 142.22 68.35 142.38 68.31C142.54 68.27 142.7 68.3 142.86 68.4C142.98 68.48 143.15 68.58 143.37 68.7C143.61 68.82 143.87 68.93 144.15 69.03C144.45 69.15 144.77 69.25 145.11 69.33C145.45 69.41 145.8 69.45 146.16 69.45C146.7 69.45 147.17 69.4 147.57 69.3C147.97 69.2 148.31 69.02 148.59 68.76C148.87 68.52 149.08 68.18 149.22 67.74C149.36 67.32 149.43 66.79 149.43 66.15V65.76C149.11 65.88 148.65 66 148.05 66.12C147.45 66.26 146.8 66.33 146.1 66.33C145.06 66.33 144.12 66.15 143.28 65.79C142.44 65.41 141.72 64.9 141.12 64.26C140.52 63.6 140.05 62.83 139.71 61.95C139.39 61.07 139.23 60.12 139.23 59.1C139.23 58.06 139.4 57.1 139.74 56.22C140.08 55.32 140.54 54.55 141.12 53.91C141.72 53.25 142.42 52.74 143.22 52.38C144.04 52.02 144.92 51.84 145.86 51.84C146.6 51.84 147.24 51.95 147.78 52.17C148.34 52.39 148.82 52.63 149.22 52.89C149.66 53.19 150.05 53.53 150.39 53.91L150.75 52.8C150.89 52.36 151.11 52.14 151.41 52.14H152.52C152.7 52.14 152.85 52.21 152.97 52.35C153.11 52.47 153.18 52.62 153.18 52.8V66.15Z" fill="#DF9700"/>
<path d="M36.2 106.55C36.2 104.05 36.6667 101.7 37.6 99.5C38.5667 97.3 39.85 95.4 41.45 93.8C43.0833 92.1667 45 90.8833 47.2 89.95C49.4 88.9833 51.75 88.5 54.25 88.5C56.7833 88.5 59 88.9 60.9 89.7C62.8333 90.4667 64.65 91.6167 66.35 93.15C66.85 93.6167 66.8667 94.0833 66.4 94.55L63.35 97.7C62.95 98.1333 62.5333 98.1333 62.1 97.7C61.0333 96.7667 59.8333 96.05 58.5 95.55C57.1667 95.0167 55.8 94.75 54.4 94.75C52.8 94.75 51.3167 95.0667 49.95 95.7C48.5833 96.3 47.4 97.1333 46.4 98.2C45.4333 99.2667 44.6667 100.517 44.1 101.95C43.5333 103.35 43.25 104.833 43.25 106.4C43.25 107.967 43.5333 109.45 44.1 110.85C44.6667 112.25 45.45 113.483 46.45 114.55C47.45 115.583 48.6333 116.417 50 117.05C51.3667 117.65 52.85 117.95 54.45 117.95C55.95 117.95 57.3333 117.7 58.6 117.2C59.8667 116.667 61.0333 115.967 62.1 115.1C62.3 114.933 62.5167 114.85 62.75 114.85C62.9833 114.85 63.1833 114.933 63.35 115.1L66.45 118.3C66.65 118.467 66.7333 118.7 66.7 119C66.6667 119.267 66.5667 119.483 66.4 119.65C64.7 121.317 62.8 122.55 60.7 123.35C58.6333 124.117 56.4833 124.5 54.25 124.5C51.75 124.5 49.4 124.033 47.2 123.1C45 122.167 43.0833 120.9 41.45 119.3C39.85 117.667 38.5667 115.767 37.6 113.6C36.6667 111.4 36.2 109.05 36.2 106.55ZM69.8426 106.55C69.8426 104.05 70.3092 101.7 71.2426 99.5C72.1759 97.3 73.4426 95.4 75.0426 93.8C76.6759 92.1667 78.5759 90.8833 80.7426 89.95C82.9426 88.9833 85.2926 88.5 87.7926 88.5C90.2926 88.5 92.6259 88.9833 94.7926 89.95C96.9926 90.8833 98.9092 92.1667 100.543 93.8C102.176 95.4 103.459 97.3 104.393 99.5C105.326 101.7 105.793 104.05 105.793 106.55C105.793 109.05 105.326 111.4 104.393 113.6C103.459 115.767 102.176 117.667 100.543 119.3C98.9092 120.9 96.9926 122.167 94.7926 123.1C92.6259 124.033 90.2926 124.5 87.7926 124.5C85.2926 124.5 82.9426 124.033 80.7426 123.1C78.5759 122.167 76.6759 120.9 75.0426 119.3C73.4426 117.667 72.1759 115.767 71.2426 113.6C70.3092 111.4 69.8426 109.05 69.8426 106.55ZM76.3426 106.55C76.3426 108.117 76.6426 109.6 77.2426 111C77.8426 112.4 78.6592 113.617 79.6926 114.65C80.7259 115.683 81.9426 116.5 83.3426 117.1C84.7426 117.7 86.2259 118 87.7926 118C89.3592 118 90.8426 117.7 92.2426 117.1C93.6426 116.5 94.8592 115.683 95.8926 114.65C96.9592 113.617 97.7926 112.4 98.3926 111C98.9926 109.6 99.2926 108.117 99.2926 106.55C99.2926 104.983 98.9926 103.5 98.3926 102.1C97.7926 100.7 96.9592 99.4833 95.8926 98.45C94.8592 97.3833 93.6426 96.55 92.2426 95.95C90.8426 95.3167 89.3592 95 87.7926 95C86.2259 95 84.7426 95.3167 83.3426 95.95C81.9426 96.55 80.7259 97.3833 79.6926 98.45C78.6592 99.4833 77.8426 100.7 77.2426 102.1C76.6426 103.5 76.3426 104.983 76.3426 106.55ZM81.6426 85.2C81.4426 84.9333 81.3926 84.6667 81.4926 84.4C81.6259 84.1333 81.7926 83.95 81.9926 83.85L87.1426 79.85C87.5759 79.4833 88.0259 79.4667 88.4926 79.8L93.6426 83.85C93.8426 83.95 93.9926 84.1333 94.0926 84.4C94.2259 84.6667 94.1926 84.9333 93.9926 85.2L92.9426 86.65C92.7426 86.8833 92.5259 87.0333 92.2926 87.1C92.0926 87.1333 91.8259 87.0667 91.4926 86.9L87.8426 84.55L84.1426 86.9C83.8092 87.0667 83.5259 87.1333 83.2926 87.1C83.0926 87.0333 82.8926 86.8833 82.6926 86.65L81.6426 85.2ZM112.225 89.4C112.225 89.1333 112.308 88.9167 112.475 88.75C112.675 88.5833 112.908 88.5 113.175 88.5H113.925C114.258 88.5 114.541 88.6167 114.775 88.85L135.175 110.6H135.275V89.95C135.275 89.6833 135.358 89.4667 135.525 89.3C135.725 89.1 135.958 89 136.225 89H140.825C141.091 89 141.308 89.1 141.475 89.3C141.675 89.4667 141.775 89.6833 141.775 89.95V123.6C141.775 123.867 141.675 124.083 141.475 124.25C141.308 124.417 141.091 124.5 140.825 124.5H140.125C139.791 124.5 139.508 124.383 139.275 124.15L118.775 101.55H118.675V123.05C118.675 123.317 118.575 123.55 118.375 123.75C118.208 123.917 117.991 124 117.725 124H113.175C112.908 124 112.675 123.917 112.475 123.75C112.308 123.55 112.225 123.317 112.225 123.05V89.4ZM148.212 106.55C148.212 104.05 148.678 101.7 149.612 99.5C150.545 97.3 151.828 95.4 153.462 93.8C155.095 92.1667 156.995 90.8833 159.162 89.95C161.328 88.9833 163.662 88.5 166.162 88.5C168.428 88.5 170.595 88.9167 172.662 89.75C174.762 90.55 176.662 91.6833 178.362 93.15C178.562 93.35 178.662 93.5833 178.662 93.85C178.695 94.1167 178.612 94.35 178.412 94.55L175.312 97.8C174.912 98.2 174.478 98.2 174.012 97.8C171.812 95.8667 169.295 94.9 166.462 94.9C164.895 94.9 163.428 95.2167 162.062 95.85C160.695 96.45 159.512 97.2833 158.512 98.35C157.512 99.4167 156.712 100.65 156.112 102.05C155.545 103.45 155.262 104.933 155.262 106.5C155.262 108.067 155.545 109.55 156.112 110.95C156.712 112.317 157.512 113.517 158.512 114.55C159.545 115.583 160.745 116.417 162.112 117.05C163.478 117.65 164.945 117.95 166.512 117.95C167.912 117.95 169.128 117.8 170.162 117.5C171.195 117.167 171.962 116.9 172.462 116.7V112.45H168.462C168.195 112.45 167.962 112.367 167.762 112.2C167.595 112.033 167.512 111.817 167.512 111.55V107.6C167.512 106.967 167.828 106.65 168.462 106.65H178.062C178.328 106.65 178.545 106.75 178.712 106.95C178.878 107.117 178.962 107.333 178.962 107.6V120.4C178.962 120.733 178.828 121 178.562 121.2C177.528 121.833 176.362 122.383 175.062 122.85C173.962 123.25 172.645 123.617 171.112 123.95C169.612 124.283 167.962 124.45 166.162 124.45C163.662 124.45 161.328 123.983 159.162 123.05C156.995 122.117 155.095 120.85 153.462 119.25C151.828 117.65 150.545 115.767 149.612 113.6C148.678 111.4 148.212 109.05 148.212 106.55ZM198.162 89.95C198.162 89.6833 198.245 89.4667 198.412 89.3C198.579 89.1 198.795 89 199.062 89H210.912C213.312 89 215.579 89.4667 217.712 90.4C219.845 91.3 221.712 92.55 223.312 94.15C224.912 95.7167 226.162 97.5667 227.062 99.7C227.995 101.8 228.462 104.05 228.462 106.45C228.462 108.883 227.995 111.167 227.062 113.3C226.162 115.433 224.912 117.3 223.312 118.9C221.712 120.467 219.845 121.717 217.712 122.65C215.579 123.55 213.312 124 210.912 124H199.062C198.795 124 198.579 123.917 198.412 123.75C198.245 123.55 198.162 123.317 198.162 123.05V89.95ZM210.312 117.9C211.945 117.9 213.445 117.633 214.812 117.1C216.179 116.533 217.362 115.75 218.362 114.75C219.362 113.75 220.145 112.55 220.712 111.15C221.279 109.717 221.562 108.15 221.562 106.45C221.562 104.75 221.279 103.2 220.712 101.8C220.145 100.4 219.362 99.2 218.362 98.2C217.362 97.2 216.179 96.4333 214.812 95.9C213.445 95.3333 211.945 95.05 210.312 95.05H204.612V117.9H210.312ZM230.848 124C230.482 124 230.198 123.867 229.998 123.6C229.832 123.333 229.832 123.033 229.998 122.7L245.548 89.05C245.715 88.6833 245.998 88.5 246.398 88.5H246.898C247.165 88.5 247.348 88.55 247.448 88.65C247.582 88.75 247.682 88.8833 247.748 89.05L263.148 122.7C263.315 123.033 263.298 123.333 263.098 123.6C262.932 123.867 262.665 124 262.298 124H257.948C257.582 124 257.282 123.933 257.048 123.8C256.848 123.633 256.665 123.367 256.498 123L254.048 117.6H239.098L236.648 123C236.548 123.267 236.382 123.5 236.148 123.7C235.915 123.9 235.598 124 235.198 124H230.848ZM251.598 112.05L246.598 101.05H246.448L241.548 112.05H251.598ZM240.398 85.2C240.198 84.9333 240.148 84.6667 240.248 84.4C240.382 84.1333 240.548 83.95 240.748 83.85L245.898 79.85C246.332 79.4833 246.782 79.4667 247.248 79.8L252.398 83.85C252.598 83.95 252.748 84.1333 252.848 84.4C252.982 84.6667 252.948 84.9333 252.748 85.2L251.698 86.65C251.498 86.8833 251.282 87.0333 251.048 87.1C250.848 87.1333 250.582 87.0667 250.248 86.9L246.598 84.55L242.898 86.9C242.565 87.0667 242.282 87.1333 242.048 87.1C241.848 87.0333 241.648 86.8833 241.448 86.65L240.398 85.2ZM267.547 89.4C267.547 89.1333 267.63 88.9167 267.797 88.75C267.997 88.5833 268.23 88.5 268.497 88.5H269.247C269.58 88.5 269.864 88.6167 270.097 88.85L290.497 110.6H290.597V89.95C290.597 89.6833 290.68 89.4667 290.847 89.3C291.047 89.1 291.28 89 291.547 89H296.147C296.414 89 296.63 89.1 296.797 89.3C296.997 89.4667 297.097 89.6833 297.097 89.95V123.6C297.097 123.867 296.997 124.083 296.797 124.25C296.63 124.417 296.414 124.5 296.147 124.5H295.447C295.114 124.5 294.83 124.383 294.597 124.15L274.097 101.55H273.997V123.05C273.997 123.317 273.897 123.55 273.697 123.75C273.53 123.917 273.314 124 273.047 124H268.497C268.23 124 267.997 123.917 267.797 123.75C267.63 123.55 267.547 123.317 267.547 123.05V89.4ZM327.146 124.5C325.579 124.5 324.179 124.35 322.946 124.05C321.746 123.783 320.696 123.45 319.796 123.05C318.929 122.617 318.196 122.183 317.596 121.75C316.996 121.283 316.512 120.9 316.146 120.6C315.879 120.4 315.712 120.2 315.646 120C315.579 119.8 315.662 119.5 315.896 119.1L317.696 116C317.896 115.633 318.162 115.45 318.496 115.45C318.862 115.417 319.162 115.483 319.396 115.65C320.429 116.417 321.529 117.133 322.696 117.8C323.896 118.433 325.312 118.75 326.946 118.75C328.246 118.75 329.329 118.383 330.196 117.65C331.062 116.883 331.496 115.967 331.496 114.9C331.496 113.633 330.962 112.533 329.896 111.6C328.829 110.667 327.246 109.767 325.146 108.9C323.979 108.433 322.829 107.883 321.696 107.25C320.562 106.617 319.546 105.867 318.646 105C317.779 104.133 317.079 103.133 316.546 102C316.012 100.867 315.746 99.5667 315.746 98.1C315.746 97 315.962 95.8833 316.396 94.75C316.829 93.5833 317.496 92.55 318.396 91.65C319.296 90.7167 320.446 89.9667 321.846 89.4C323.279 88.8 324.996 88.5 326.996 88.5C328.262 88.5 329.446 88.65 330.546 88.95C331.679 89.2167 332.679 89.5333 333.546 89.9C334.412 90.2667 335.129 90.6333 335.696 91C336.296 91.3667 336.729 91.65 336.996 91.85C337.262 92.0167 337.412 92.2667 337.446 92.6C337.512 92.9333 337.462 93.2333 337.296 93.5L335.396 96.35C335.196 96.65 334.929 96.8833 334.596 97.05C334.262 97.1833 333.946 97.15 333.646 96.95C332.579 96.2833 331.496 95.6667 330.396 95.1C329.329 94.5 328.096 94.2 326.696 94.2C325.262 94.2 324.162 94.55 323.396 95.25C322.662 95.9167 322.296 96.7333 322.296 97.7C322.296 98.8667 322.762 99.8833 323.696 100.75C324.662 101.617 326.162 102.467 328.196 103.3C329.396 103.8 330.612 104.367 331.846 105C333.112 105.633 334.246 106.4 335.246 107.3C336.246 108.167 337.062 109.2 337.696 110.4C338.329 111.6 338.646 113 338.646 114.6C338.646 115.9 338.379 117.15 337.846 118.35C337.312 119.517 336.546 120.567 335.546 121.5C334.546 122.4 333.329 123.133 331.896 123.7C330.496 124.233 328.912 124.5 327.146 124.5ZM342.792 106.55C342.792 104.05 343.258 101.7 344.192 99.5C345.125 97.3 346.392 95.4 347.992 93.8C349.625 92.1667 351.525 90.8833 353.692 89.95C355.892 88.9833 358.242 88.5 360.742 88.5C363.242 88.5 365.575 88.9833 367.742 89.95C369.942 90.8833 371.858 92.1667 373.492 93.8C375.125 95.4 376.408 97.3 377.342 99.5C378.275 101.7 378.742 104.05 378.742 106.55C378.742 109.05 378.275 111.4 377.342 113.6C376.408 115.767 375.125 117.667 373.492 119.3C371.858 120.9 369.942 122.167 367.742 123.1C365.575 124.033 363.242 124.5 360.742 124.5C358.242 124.5 355.892 124.033 353.692 123.1C351.525 122.167 349.625 120.9 347.992 119.3C346.392 117.667 345.125 115.767 344.192 113.6C343.258 111.4 342.792 109.05 342.792 106.55ZM349.292 106.55C349.292 108.117 349.592 109.6 350.192 111C350.792 112.4 351.608 113.617 352.642 114.65C353.675 115.683 354.892 116.5 356.292 117.1C357.692 117.7 359.175 118 360.742 118C362.308 118 363.792 117.7 365.192 117.1C366.592 116.5 367.808 115.683 368.842 114.65C369.908 113.617 370.742 112.4 371.342 111C371.942 109.6 372.242 108.117 372.242 106.55C372.242 104.983 371.942 103.5 371.342 102.1C370.742 100.7 369.908 99.4833 368.842 98.45C367.808 97.3833 366.592 96.55 365.192 95.95C363.792 95.3167 362.308 95 360.742 95C359.175 95 357.692 95.3167 356.292 95.95C354.892 96.55 353.675 97.3833 352.642 98.45C351.608 99.4833 350.792 100.7 350.192 102.1C349.592 103.5 349.292 104.983 349.292 106.55ZM354.592 84.6C354.392 84.3333 354.342 84.0667 354.442 83.8C354.575 83.5333 354.742 83.35 354.942 83.25L360.092 79.25C360.525 78.8833 360.975 78.8667 361.442 79.2L366.592 83.25C366.792 83.35 366.942 83.5333 367.042 83.8C367.175 84.0667 367.142 84.3333 366.942 84.6L365.892 86.05C365.692 86.2833 365.475 86.4333 365.242 86.5C365.042 86.5333 364.775 86.4667 364.442 86.3L360.792 83.95L357.092 86.3C356.758 86.4667 356.475 86.5333 356.242 86.5C356.042 86.4333 355.842 86.2833 355.642 86.05L354.592 84.6ZM358.092 78.5C357.525 78.8333 357.075 78.6667 356.742 78L356.042 76.55C355.908 76.2833 355.892 76.0333 355.992 75.8C356.092 75.5667 356.242 75.3833 356.442 75.25L362.942 71.4C363.208 71.2 363.492 71.1167 363.792 71.15C364.125 71.15 364.392 71.3167 364.592 71.65L365.742 73.7C365.908 74.0667 365.942 74.4 365.842 74.7C365.742 74.9667 365.558 75.1667 365.292 75.3L358.092 78.5Z" fill="white"/>
</svg>
